<?xml version="1.0" standalone="no"?>
<svg viewBox="0 0 200 200" xmlns="http://www.w3.org/2000/svg">
  <path fill="#B9D4DD" d="M31.1,-53.2C43.7,-46.6,59.8,-45.2,68.3,-37.2C76.7,-29.2,77.7,-14.6,76.6,-0.6C75.4,13.3,72.3,26.6,67.3,40.7C62.4,54.8,55.6,69.6,44,72.7C32.5,75.7,16.3,66.9,3.5,60.8C-9.3,54.8,-18.5,51.5,-31.3,49.2C-44.1,46.9,-60.4,45.6,-70.1,37.5C-79.8,29.5,-82.9,14.8,-80,1.7C-77.1,-11.4,-68.2,-22.8,-59.2,-32.1C-50.3,-41.4,-41.2,-48.6,-31.3,-56.8C-21.5,-65,-10.7,-74.2,-0.7,-72.9C9.2,-71.6,18.5,-59.8,31.1,-53.2Z" transform="translate(100 100)" />
</svg>
